<?xml version="1.0" encoding="utf-8"?>
<!-- Generator: Adobe Illustrator 19.0.0, SVG Export Plug-In . SVG Version: 6.00 Build 0)  -->
<svg version="1.1" id="Layer_1" xmlns="http://www.w3.org/2000/svg" xmlns:xlink="http://www.w3.org/1999/xlink" x="0px" y="0px"
	 viewBox="0 0 513.4 160.3" style="enable-background:new 0 0 513.4 160.3;" xml:space="preserve">
<style type="text/css">
	.st0{fill:#FFFFFF;}
</style>
<path class="st0" d="M36.9,43.8h75v75h-75V43.8z M68.4,84.9h5c7,0,12.3-4.7,12.3-10.8c0-3.4-1.9-7-4.7-8.7c-2-1.3-4.2-1.8-8-1.8
	H62.9v35.2h5.5V84.9z M68.6,80V68.4h3.8c5,0,7.8,2.1,7.8,5.8c0,1.7-0.7,3.3-1.9,4.3C77,79.6,75.4,80,72.6,80H68.6z M127.9,43.8h75
	v75h-75V43.8z M176.2,98.7v-4.9H160V63.5h-5.5v35.2H176.2z M309.8,43.8h75v75h-75V43.8z M356.4,63.5v22.4l-23.7-23.7v36.5h5.5V76.3
	l23.7,23.9V63.5H356.4z M400.8,43.8h75v75h-75V43.8z M435.6,98.7h5.5V68.4h11.4v-4.9H424v4.9h11.6V98.7z M250.4,87.5l5.9-12.5
	l5.9,12.5H250.4z M293.8,43.8v75h-75v-75H293.8z M273.6,98.7l-17.3-36.5L239,98.7h6.1l3-6.2h16.5l3,6.2H273.6z"/>
</svg>
